<svg height="24" viewBox="0 0 24 24" width="24" xmlns="http://www.w3.org/2000/svg"><path d="m12 2c5.5228475 0 10 4.4771525 10 10s-4.4771525 10-10 10-10-4.4771525-10-10 4.4771525-10 10-10zm0 1.5c-4.69442037 0-8.5 3.80557963-8.5 8.5 0 4.6944204 3.80557963 8.5 8.5 8.5 4.6944204 0 8.5-3.8055796 8.5-8.5 0-4.69442037-3.8055796-8.5-8.5-8.5zm0 1.70192308c2.7614237 0 5 2.23857625 5 5.00000002 0 1.5363606-.6982836 2.9595318-1.8901577 3.9151047l.0321577-.0280278-.7646142 3.3674876c-.1540555.6675739-.6848835 1.1750096-1.3795006 1.3106127l-.1512759.0232894-.1556698.0076872h-1.381879c-.7340561 0-1.38624385-.4627796-1.64395216-1.1916346l-.04302198-.1522584-.76608636-3.3661839-.15454712-.1286707c-.93211044-.8181418-1.53572204-1.96085-1.67277573-3.2304604l-.02114906-.2555556-.00752809-.2713902c0-2.76142377 2.23857625-5.00000002 5-5.00000002zm1.17 10.79807692h-2.342l.2453612 1.077684.0184007.0674516c.0323825.0911203.1195058.1529413.2172986.1529413l1.3389904.0012273.0698618-.0027624c.0960684-.0110639.1758967-.082055.1973257-.1748951zm-1.17-9.29807692c-1.9329966 0-3.5 1.56700337-3.50031284 3.47833992l.0062722.2280052c.06165519 1.0640524.60308873 2.0284938 1.4585509 2.6407706.14922294.1068028.25411164.2646079.29481094.4435433l.2286788 1.0094179.0408462-.002h2.9423076l.0388462.002.2296459-1.0081962c.0313112-.1377866.1007215-.2631962.1993303-.362437l.0792922-.0693084.1695885-.128037c.8240905-.6609654 1.3121431-1.655665 1.3121431-2.7320983 0-1.93299665-1.5670034-3.50000002-3.5-3.50000002z" fill="#212121"/></svg>